<svg xmlns="http://www.w3.org/2000/svg" width="1536" height="1024" viewBox="0 0 1536 1024" role="img" aria-label="十篇论文，一根线">
  <rect width="1536" height="1024" fill="#f7f3ed"/>
  <g fill="none" stroke="#1f2328" stroke-width="10" stroke-linecap="round" stroke-linejoin="round">
    <rect x="250" y="210" width="150" height="190" rx="8"/><rect x="430" y="170" width="150" height="190" rx="8"/><rect x="610" y="220" width="150" height="190" rx="8"/><rect x="790" y="165" width="150" height="190" rx="8"/><rect x="970" y="215" width="150" height="190" rx="8"/><rect x="620" y="530" width="300" height="190" rx="28"/><path d="M675 530v-70h190v70"/><path d="M325 405 C440 505 525 555 620 610"/><path d="M505 365 C565 460 615 500 670 530"/><path d="M685 415 C700 470 720 500 745 530"/><path d="M865 360 C845 430 825 480 795 530"/><path d="M1045 410 C970 505 910 550 870 610"/><circle cx="770" cy="625" r="34" fill="#d14b3f" stroke="none"/><text x="770" y="637" text-anchor="middle" font-family="Arial, 'Microsoft YaHei', sans-serif" font-size="36" fill="white" stroke="none">理解</text>
  </g>
  <text x="768" y="940" text-anchor="middle" font-family="Arial, 'Microsoft YaHei', sans-serif" font-size="44" fill="#1f2328">十篇论文，一根线</text>
</svg>