<svg xmlns="http://www.w3.org/2000/svg" width="1536" height="1024" viewBox="0 0 1536 1024" role="img" aria-label="压缩接力赛">
  <rect width="1536" height="1024" fill="#f7f3ed"/>
  <g fill="none" stroke="#1f2328" stroke-width="10" stroke-linecap="round" stroke-linejoin="round">
    <circle cx="270" cy="360" r="40"/><path d="M270 405l-50 135 90 110M270 480l105 20"/><circle cx="545" cy="360" r="40"/><path d="M545 405l-40 135 100 100M545 480l105 0"/><circle cx="825" cy="360" r="40"/><path d="M825 405l-45 140 100 105M825 480l105-20"/><circle cx="1100" cy="360" r="40"/><path d="M1100 405l-55 145 110 90M1100 480l110-30"/><path d="M380 495h85M655 480h85M935 460h85M220 760h1060" stroke="#d14b3f"/> <text x="270" y="280" text-anchor="middle" font-family="Arial, 'Microsoft YaHei', sans-serif" font-size="34" fill="#1f2328" stroke="none">规则</text><text x="545" y="280" text-anchor="middle" font-family="Arial, 'Microsoft YaHei', sans-serif" font-size="34" fill="#1f2328" stroke="none">数据</text><text x="825" y="280" text-anchor="middle" font-family="Arial, 'Microsoft YaHei', sans-serif" font-size="34" fill="#1f2328" stroke="none">深度学习</text><text x="1100" y="280" text-anchor="middle" font-family="Arial, 'Microsoft YaHei', sans-serif" font-size="34" fill="#1f2328" stroke="none">LLM</text>
  </g>
  <text x="768" y="940" text-anchor="middle" font-family="Arial, 'Microsoft YaHei', sans-serif" font-size="44" fill="#1f2328">压缩接力赛</text>
</svg>