<?xml version="1.0" encoding="UTF-8"?>
<svg xmlns="http://www.w3.org/2000/svg" width="1536" height="1024" viewBox="0 0 1536 1024" role="img" aria-labelledby="title desc">
<title id="title">第七章：个人成长</title>
<desc id="desc">书架很胖，模型很饿。</desc>
<defs>
<filter id="wobble"><feTurbulence type="fractalNoise" baseFrequency="0.012" numOctaves="2" seed="7"/><feDisplacementMap in="SourceGraphic" scale="1.8"/></filter>
<filter id="softShadow"><feDropShadow dx="0" dy="7" stdDeviation="7" flood-color="#6b5a44" flood-opacity="0.15"/></filter>
<pattern id="paperGrain" width="80" height="80" patternUnits="userSpaceOnUse"><circle cx="9" cy="12" r="1.2" fill="#dccdb8" opacity=".25"/><circle cx="57" cy="31" r="1" fill="#dccdb8" opacity=".25"/><circle cx="36" cy="67" r="1.1" fill="#dccdb8" opacity=".22"/></pattern>
<style>.ink{fill:none;stroke:#202124;stroke-width:8;stroke-linecap:round;stroke-linejoin:round;filter:url(#wobble)}.thin{fill:none;stroke:#202124;stroke-width:4;stroke-linecap:round;stroke-linejoin:round;filter:url(#wobble)}.red{fill:none;stroke:#c74335;stroke-width:8;stroke-linecap:round;stroke-linejoin:round;filter:url(#wobble)}.fillPaper{fill:#fbf7ef;stroke:#202124;stroke-width:8;stroke-linecap:round;stroke-linejoin:round;filter:url(#softShadow)}.wash{fill:#eee3d3;stroke:#202124;stroke-width:6;stroke-linecap:round;stroke-linejoin:round;filter:url(#wobble)}.redFill{fill:#c74335;stroke:#202124;stroke-width:6;stroke-linecap:round;stroke-linejoin:round;filter:url(#wobble)}.blueFill{fill:#3e6f8f;stroke:#202124;stroke-width:6;stroke-linecap:round;stroke-linejoin:round;filter:url(#wobble)}.greenFill{fill:#5f7f53;stroke:#202124;stroke-width:6;stroke-linecap:round;stroke-linejoin:round;filter:url(#wobble)}.goldFill{fill:#b88a36;stroke:#202124;stroke-width:6;stroke-linecap:round;stroke-linejoin:round;filter:url(#wobble)}text{font-family:Arial,'Microsoft YaHei',sans-serif;fill:#202124;dominant-baseline:middle}.caption{font-size:30px}.small{font-size:24px}.label{font-size:34px;font-weight:700}.title{font-size:46px;font-weight:700}</style>
</defs>
<rect width="1536" height="1024" fill="#fbf7ef"/><rect width="1536" height="1024" fill="url(#paperGrain)"/><g><rect class="wash" x="170" y="165" width="470" height="590" rx="22"/><path class="ink" d="M170 310 h470 M170 455 h470 M170 600 h470"/><path class="thin" d="M220 175 v135 M290 175 v135 M370 175 v135 M455 175 v135 M545 175 v135 M230 320 v135 M315 320 v135 M400 320 v135 M500 320 v135"/><circle class="fillPaper" cx="920" cy="370" r="40.8"/><path class="thin" d="M904.7 365.75 h1 M935.3 365.75 h1 M906.4 388.7 Q920 400.6 935.3 387"/><path class="ink" d="M920 412.5 v127.5"/><path class="ink" d="M864.75 459.25 C898.75 433.75 941.25 433.75 975.25 459.25"/><path class="ink" d="M920 540 l-59.5 80.75 M920 540 l63.75 80.75"/><ellipse class="fillPaper" cx="925" cy="560" rx="120" ry="78"/><path class="thin" d="M865 560 h120"/><text x="925" y="560" class="label" text-anchor="middle">还饿</text><path class="red" d="M640 520 C750 505 800 510 860 545"/><text x="435" y="810" class="caption" text-anchor="middle">收藏很多</text><text x="925" y="810" class="caption" text-anchor="middle">训练很少</text></g><text x="768" y="940" class="title" text-anchor="middle">第七章：个人成长</text>
</svg>