<?xml version="1.0" encoding="UTF-8"?>
<svg xmlns="http://www.w3.org/2000/svg" width="1536" height="1024" viewBox="0 0 1536 1024" role="img" aria-labelledby="title desc">
<title id="title">第八章：涌现</title>
<desc id="desc">第 37 手不是配方，是火候到了。</desc>
<defs>
<filter id="wobble"><feTurbulence type="fractalNoise" baseFrequency="0.012" numOctaves="2" seed="7"/><feDisplacementMap in="SourceGraphic" scale="1.8"/></filter>
<filter id="softShadow"><feDropShadow dx="0" dy="7" stdDeviation="7" flood-color="#6b5a44" flood-opacity="0.15"/></filter>
<pattern id="paperGrain" width="80" height="80" patternUnits="userSpaceOnUse"><circle cx="9" cy="12" r="1.2" fill="#dccdb8" opacity=".25"/><circle cx="57" cy="31" r="1" fill="#dccdb8" opacity=".25"/><circle cx="36" cy="67" r="1.1" fill="#dccdb8" opacity=".22"/></pattern>
<style>.ink{fill:none;stroke:#202124;stroke-width:8;stroke-linecap:round;stroke-linejoin:round;filter:url(#wobble)}.thin{fill:none;stroke:#202124;stroke-width:4;stroke-linecap:round;stroke-linejoin:round;filter:url(#wobble)}.red{fill:none;stroke:#c74335;stroke-width:8;stroke-linecap:round;stroke-linejoin:round;filter:url(#wobble)}.fillPaper{fill:#fbf7ef;stroke:#202124;stroke-width:8;stroke-linecap:round;stroke-linejoin:round;filter:url(#softShadow)}.wash{fill:#eee3d3;stroke:#202124;stroke-width:6;stroke-linecap:round;stroke-linejoin:round;filter:url(#wobble)}.redFill{fill:#c74335;stroke:#202124;stroke-width:6;stroke-linecap:round;stroke-linejoin:round;filter:url(#wobble)}.blueFill{fill:#3e6f8f;stroke:#202124;stroke-width:6;stroke-linecap:round;stroke-linejoin:round;filter:url(#wobble)}.greenFill{fill:#5f7f53;stroke:#202124;stroke-width:6;stroke-linecap:round;stroke-linejoin:round;filter:url(#wobble)}.goldFill{fill:#b88a36;stroke:#202124;stroke-width:6;stroke-linecap:round;stroke-linejoin:round;filter:url(#wobble)}text{font-family:Arial,'Microsoft YaHei',sans-serif;fill:#202124;dominant-baseline:middle}.caption{font-size:30px}.small{font-size:24px}.label{font-size:34px;font-weight:700}.title{font-size:46px;font-weight:700}</style>
</defs>
<rect width="1536" height="1024" fill="#fbf7ef"/><rect width="1536" height="1024" fill="url(#paperGrain)"/><g><path class="wash" d="M470 525 h590 l-70 210 h-450 z"/><path class="ink" d="M420 525 h690"/><path class="thin" d="M555 455 C520 380 620 360 590 295 M760 455 C715 370 820 350 790 270 M960 455 C925 370 1030 355 1000 275"/><circle class="redFill" cx="770" cy="395" r="58"/><text x="770" y="397" class="label" text-anchor="middle">37</text><circle class="fillPaper" cx="650" cy="615" r="36"/><circle class="fillPaper" cx="875" cy="630" r="36"/><circle class="fillPaper" cx="310" cy="430" r="26.400000000000002"/><path class="thin" d="M300.1 427.25 h1 M319.9 427.25 h1 M301.2 442.1 Q310 449.8 319.9 441"/><path class="ink" d="M310 457.5 v82.5"/><path class="ink" d="M274.25 487.75 C296.25 471.25 323.75 471.25 345.75 487.75"/><path class="ink" d="M310 540 l-38.5 52.25000000000001 M310 540 l41.25 52.25000000000001"/><text x="770" y="805" class="caption" text-anchor="middle">创造力没有说明书，只有火候。</text></g><text x="768" y="940" class="title" text-anchor="middle">第八章：涌现</text>
</svg>