<?xml version="1.0" encoding="UTF-8"?>
<svg xmlns="http://www.w3.org/2000/svg" width="1536" height="1024" viewBox="0 0 1536 1024" role="img" aria-labelledby="title desc">
<title id="title">第十一章：教育</title>
<desc id="desc">好老师不是扩音器，是实时调参师。</desc>
<defs>
<filter id="wobble"><feTurbulence type="fractalNoise" baseFrequency="0.012" numOctaves="2" seed="7"/><feDisplacementMap in="SourceGraphic" scale="1.8"/></filter>
<filter id="softShadow"><feDropShadow dx="0" dy="7" stdDeviation="7" flood-color="#6b5a44" flood-opacity="0.15"/></filter>
<pattern id="paperGrain" width="80" height="80" patternUnits="userSpaceOnUse"><circle cx="9" cy="12" r="1.2" fill="#dccdb8" opacity=".25"/><circle cx="57" cy="31" r="1" fill="#dccdb8" opacity=".25"/><circle cx="36" cy="67" r="1.1" fill="#dccdb8" opacity=".22"/></pattern>
<style>.ink{fill:none;stroke:#202124;stroke-width:8;stroke-linecap:round;stroke-linejoin:round;filter:url(#wobble)}.thin{fill:none;stroke:#202124;stroke-width:4;stroke-linecap:round;stroke-linejoin:round;filter:url(#wobble)}.red{fill:none;stroke:#c74335;stroke-width:8;stroke-linecap:round;stroke-linejoin:round;filter:url(#wobble)}.fillPaper{fill:#fbf7ef;stroke:#202124;stroke-width:8;stroke-linecap:round;stroke-linejoin:round;filter:url(#softShadow)}.wash{fill:#eee3d3;stroke:#202124;stroke-width:6;stroke-linecap:round;stroke-linejoin:round;filter:url(#wobble)}.redFill{fill:#c74335;stroke:#202124;stroke-width:6;stroke-linecap:round;stroke-linejoin:round;filter:url(#wobble)}.blueFill{fill:#3e6f8f;stroke:#202124;stroke-width:6;stroke-linecap:round;stroke-linejoin:round;filter:url(#wobble)}.greenFill{fill:#5f7f53;stroke:#202124;stroke-width:6;stroke-linecap:round;stroke-linejoin:round;filter:url(#wobble)}.goldFill{fill:#b88a36;stroke:#202124;stroke-width:6;stroke-linecap:round;stroke-linejoin:round;filter:url(#wobble)}text{font-family:Arial,'Microsoft YaHei',sans-serif;fill:#202124;dominant-baseline:middle}.caption{font-size:30px}.small{font-size:24px}.label{font-size:34px;font-weight:700}.title{font-size:46px;font-weight:700}</style>
</defs>
<rect width="1536" height="1024" fill="#fbf7ef"/><rect width="1536" height="1024" fill="url(#paperGrain)"/><g><circle class="fillPaper" cx="300" cy="390" r="31.200000000000003"/><path class="thin" d="M288.3 386.75 h1 M311.7 386.75 h1 M289.6 404.3 Q300 413.4 311.7 403"/><path class="ink" d="M300 422.5 v97.5"/><path class="ink" d="M300 458.25 C342.25 435.5 371.5 419.25 394.25 396.5"/><path class="ink" d="M300 520 l-45.5 61.75 M300 520 l48.75 61.75"/><rect class="wash" x="500" y="300" width="610" height="360" rx="36"/><path class="thin" d="M565 400 h460 M565 500 h460 M565 600 h460"/><circle class="redFill" cx="675" cy="400" r="25"/><circle class="redFill" cx="895" cy="500" r="25"/><circle class="redFill" cx="610" cy="600" r="25"/><text x="805" y="250" class="label" text-anchor="middle">learning rate</text><circle class="fillPaper" cx="1240" cy="365" r="35"/><circle class="fillPaper" cx="1240" cy="485" r="35"/><circle class="fillPaper" cx="1240" cy="605" r="35"/><text x="805" y="765" class="caption" text-anchor="middle">好老师不是把声音调大，而是把节奏调准。</text></g><text x="768" y="940" class="title" text-anchor="middle">第十一章：教育</text>
</svg>