<?xml version="1.0" encoding="UTF-8"?>
<svg xmlns="http://www.w3.org/2000/svg" width="1536" height="1024" viewBox="0 0 1536 1024" role="img" aria-labelledby="title desc">
<title id="title">第十三章：软件工程</title>
<desc id="desc">秋千在每一轮交接中逐渐忘记自己要荡。</desc>
<defs>
<filter id="wobble"><feTurbulence type="fractalNoise" baseFrequency="0.012" numOctaves="2" seed="7"/><feDisplacementMap in="SourceGraphic" scale="1.8"/></filter>
<filter id="softShadow"><feDropShadow dx="0" dy="7" stdDeviation="7" flood-color="#6b5a44" flood-opacity="0.15"/></filter>
<pattern id="paperGrain" width="80" height="80" patternUnits="userSpaceOnUse"><circle cx="9" cy="12" r="1.2" fill="#dccdb8" opacity=".25"/><circle cx="57" cy="31" r="1" fill="#dccdb8" opacity=".25"/><circle cx="36" cy="67" r="1.1" fill="#dccdb8" opacity=".22"/></pattern>
<style>.ink{fill:none;stroke:#202124;stroke-width:8;stroke-linecap:round;stroke-linejoin:round;filter:url(#wobble)}.thin{fill:none;stroke:#202124;stroke-width:4;stroke-linecap:round;stroke-linejoin:round;filter:url(#wobble)}.red{fill:none;stroke:#c74335;stroke-width:8;stroke-linecap:round;stroke-linejoin:round;filter:url(#wobble)}.fillPaper{fill:#fbf7ef;stroke:#202124;stroke-width:8;stroke-linecap:round;stroke-linejoin:round;filter:url(#softShadow)}.wash{fill:#eee3d3;stroke:#202124;stroke-width:6;stroke-linecap:round;stroke-linejoin:round;filter:url(#wobble)}.redFill{fill:#c74335;stroke:#202124;stroke-width:6;stroke-linecap:round;stroke-linejoin:round;filter:url(#wobble)}.blueFill{fill:#3e6f8f;stroke:#202124;stroke-width:6;stroke-linecap:round;stroke-linejoin:round;filter:url(#wobble)}.greenFill{fill:#5f7f53;stroke:#202124;stroke-width:6;stroke-linecap:round;stroke-linejoin:round;filter:url(#wobble)}.goldFill{fill:#b88a36;stroke:#202124;stroke-width:6;stroke-linecap:round;stroke-linejoin:round;filter:url(#wobble)}text{font-family:Arial,'Microsoft YaHei',sans-serif;fill:#202124;dominant-baseline:middle}.caption{font-size:30px}.small{font-size:24px}.label{font-size:34px;font-weight:700}.title{font-size:46px;font-weight:700}</style>
</defs>
<rect width="1536" height="1024" fill="#fbf7ef"/><rect width="1536" height="1024" fill="url(#paperGrain)"/><g><path class="thin" d="M180 760 h1180"/><circle class="fillPaper" cx="230" cy="430" r="21.6"/><path class="thin" d="M221.9 427.75 h1 M238.1 427.75 h1 M222.8 439.9 Q230 446.2 238.1 439"/><path class="ink" d="M230 452.5 v67.5"/><path class="ink" d="M230 477.25 C259.25 461.5 279.5 450.25 295.25 434.5"/><path class="ink" d="M230 520 l-31.5 42.75 M230 520 l33.75 42.75"/><rect class="fillPaper" x="330" y="330" width="150" height="115" rx="12"/><text x="405" y="390" class="small" text-anchor="middle">能荡</text><path class="red" d="M485 385 C550 360 585 360 640 385"/><rect class="fillPaper" x="650" y="330" width="150" height="115" rx="12"/><text x="725" y="390" class="small" text-anchor="middle">秋千</text><path class="red" d="M805 385 C870 360 905 360 960 385"/><rect class="fillPaper" x="970" y="330" width="150" height="115" rx="12"/><text x="1045" y="390" class="small" text-anchor="middle">座椅</text><path class="red" d="M1125 385 C1170 370 1205 380 1240 415"/><path class="wash" d="M1220 560 h135 v95 h-135 z"/><path class="ink" d="M1240 560 v-150 M1335 560 v-150"/><text x="770" y="825" class="caption" text-anchor="middle">每轮都没撒谎，只是都少带了一点灵魂。</text></g><text x="768" y="940" class="title" text-anchor="middle">第十三章：软件工程</text>
</svg>