<svg xmlns="http://www.w3.org/2000/svg" width="1536" height="1024" viewBox="0 0 1536 1024" role="img" aria-label="秋千需求旅行记">
  <rect width="1536" height="1024" fill="#f7f3ed"/>
  <g fill="none" stroke="#1f2328" stroke-width="10" stroke-linecap="round" stroke-linejoin="round">
    <path d="M345 260h160M425 260v430M345 690h160"/><path d="M585 260h160M665 260v430M585 690h160"/><path d="M825 260h160M905 260v430M825 690h160"/><path d="M1065 260h160M1145 260v430M1065 690h160"/><path d="M510 480h70M750 480h70M990 480h70" stroke="#d14b3f"/><rect x="1090" y="560" width="110" height="80"/><path d="M1110 560v-120M1180 560v-120"/><text x="425" y="220" text-anchor="middle" font-family="Arial, 'Microsoft YaHei', sans-serif" font-size="32" fill="#1f2328" stroke="none">需求</text><text x="665" y="220" text-anchor="middle" font-family="Arial, 'Microsoft YaHei', sans-serif" font-size="32" fill="#1f2328" stroke="none">设计</text><text x="905" y="220" text-anchor="middle" font-family="Arial, 'Microsoft YaHei', sans-serif" font-size="32" fill="#1f2328" stroke="none">代码</text><text x="1145" y="220" text-anchor="middle" font-family="Arial, 'Microsoft YaHei', sans-serif" font-size="32" fill="#1f2328" stroke="none">交付</text>
  </g>
  <text x="768" y="940" text-anchor="middle" font-family="Arial, 'Microsoft YaHei', sans-serif" font-size="44" fill="#1f2328">秋千需求旅行记</text>
</svg>