<?xml version="1.0" encoding="UTF-8"?>
<svg xmlns="http://www.w3.org/2000/svg" width="1536" height="1024" viewBox="0 0 1536 1024" role="img" aria-labelledby="title desc">
<title id="title">第十四章：人际沟通</title>
<desc id="desc">悲欢可以相通，只是上下文很重。</desc>
<defs>
<filter id="wobble"><feTurbulence type="fractalNoise" baseFrequency="0.012" numOctaves="2" seed="7"/><feDisplacementMap in="SourceGraphic" scale="1.8"/></filter>
<filter id="softShadow"><feDropShadow dx="0" dy="7" stdDeviation="7" flood-color="#6b5a44" flood-opacity="0.15"/></filter>
<pattern id="paperGrain" width="80" height="80" patternUnits="userSpaceOnUse"><circle cx="9" cy="12" r="1.2" fill="#dccdb8" opacity=".25"/><circle cx="57" cy="31" r="1" fill="#dccdb8" opacity=".25"/><circle cx="36" cy="67" r="1.1" fill="#dccdb8" opacity=".22"/></pattern>
<style>.ink{fill:none;stroke:#202124;stroke-width:8;stroke-linecap:round;stroke-linejoin:round;filter:url(#wobble)}.thin{fill:none;stroke:#202124;stroke-width:4;stroke-linecap:round;stroke-linejoin:round;filter:url(#wobble)}.red{fill:none;stroke:#c74335;stroke-width:8;stroke-linecap:round;stroke-linejoin:round;filter:url(#wobble)}.fillPaper{fill:#fbf7ef;stroke:#202124;stroke-width:8;stroke-linecap:round;stroke-linejoin:round;filter:url(#softShadow)}.wash{fill:#eee3d3;stroke:#202124;stroke-width:6;stroke-linecap:round;stroke-linejoin:round;filter:url(#wobble)}.redFill{fill:#c74335;stroke:#202124;stroke-width:6;stroke-linecap:round;stroke-linejoin:round;filter:url(#wobble)}.blueFill{fill:#3e6f8f;stroke:#202124;stroke-width:6;stroke-linecap:round;stroke-linejoin:round;filter:url(#wobble)}.greenFill{fill:#5f7f53;stroke:#202124;stroke-width:6;stroke-linecap:round;stroke-linejoin:round;filter:url(#wobble)}.goldFill{fill:#b88a36;stroke:#202124;stroke-width:6;stroke-linecap:round;stroke-linejoin:round;filter:url(#wobble)}text{font-family:Arial,'Microsoft YaHei',sans-serif;fill:#202124;dominant-baseline:middle}.caption{font-size:30px}.small{font-size:24px}.label{font-size:34px;font-weight:700}.title{font-size:46px;font-weight:700}</style>
</defs>
<rect width="1536" height="1024" fill="#fbf7ef"/><rect width="1536" height="1024" fill="url(#paperGrain)"/><g><circle class="fillPaper" cx="300" cy="430" r="28.799999999999997"/><path class="thin" d="M289.2 427 h1 M310.8 427 h1 M290.4 443.2 Q300 451.6 310.8 442"/><path class="ink" d="M300 460 v90"/><path class="ink" d="M300 493 C339 472 366 457 387 436"/><path class="ink" d="M300 550 l-42 57 M300 550 l45 57"/><circle class="fillPaper" cx="1230" cy="430" r="28.799999999999997"/><path class="thin" d="M1219.2 427 h1 M1240.8 427 h1 M1220.4 443.2 Q1230 451.6 1240.8 442"/><path class="ink" d="M1230 460 v90"/><path class="ink" d="M1191 493 C1215 475 1245 475 1269 493"/><path class="ink" d="M1230 550 l-42 57 M1230 550 l45 57"/><path class="blueFill" d="M455 690 C600 610 735 740 890 660 C1015 595 1090 660 1180 620 L1180 770 H455 Z"/><rect class="fillPaper" x="650" y="390" width="250" height="140" rx="20"/><path class="thin" d="M690 455 h170"/><circle class="redFill" cx="775" cy="455" r="20"/><text x="775" y="575" class="caption" text-anchor="middle">上下文包裹</text><path class="red" d="M455 510 C600 440 755 435 1035 510"/><text x="770" y="810" class="caption" text-anchor="middle">不是不能相通，是邮费常常吓人。</text></g><text x="768" y="940" class="title" text-anchor="middle">第十四章：人际沟通</text>
</svg>