<?xml version="1.0" encoding="UTF-8"?>
<svg xmlns="http://www.w3.org/2000/svg" width="1536" height="1024" viewBox="0 0 1536 1024" role="img" aria-labelledby="title desc">
<title id="title">第十五章：科学范式转移</title>
<desc id="desc">换范式像搬家，最难丢的是旧沙发。</desc>
<defs>
<filter id="wobble"><feTurbulence type="fractalNoise" baseFrequency="0.012" numOctaves="2" seed="7"/><feDisplacementMap in="SourceGraphic" scale="1.8"/></filter>
<filter id="softShadow"><feDropShadow dx="0" dy="7" stdDeviation="7" flood-color="#6b5a44" flood-opacity="0.15"/></filter>
<pattern id="paperGrain" width="80" height="80" patternUnits="userSpaceOnUse"><circle cx="9" cy="12" r="1.2" fill="#dccdb8" opacity=".25"/><circle cx="57" cy="31" r="1" fill="#dccdb8" opacity=".25"/><circle cx="36" cy="67" r="1.1" fill="#dccdb8" opacity=".22"/></pattern>
<style>.ink{fill:none;stroke:#202124;stroke-width:8;stroke-linecap:round;stroke-linejoin:round;filter:url(#wobble)}.thin{fill:none;stroke:#202124;stroke-width:4;stroke-linecap:round;stroke-linejoin:round;filter:url(#wobble)}.red{fill:none;stroke:#c74335;stroke-width:8;stroke-linecap:round;stroke-linejoin:round;filter:url(#wobble)}.fillPaper{fill:#fbf7ef;stroke:#202124;stroke-width:8;stroke-linecap:round;stroke-linejoin:round;filter:url(#softShadow)}.wash{fill:#eee3d3;stroke:#202124;stroke-width:6;stroke-linecap:round;stroke-linejoin:round;filter:url(#wobble)}.redFill{fill:#c74335;stroke:#202124;stroke-width:6;stroke-linecap:round;stroke-linejoin:round;filter:url(#wobble)}.blueFill{fill:#3e6f8f;stroke:#202124;stroke-width:6;stroke-linecap:round;stroke-linejoin:round;filter:url(#wobble)}.greenFill{fill:#5f7f53;stroke:#202124;stroke-width:6;stroke-linecap:round;stroke-linejoin:round;filter:url(#wobble)}.goldFill{fill:#b88a36;stroke:#202124;stroke-width:6;stroke-linecap:round;stroke-linejoin:round;filter:url(#wobble)}text{font-family:Arial,'Microsoft YaHei',sans-serif;fill:#202124;dominant-baseline:middle}.caption{font-size:30px}.small{font-size:24px}.label{font-size:34px;font-weight:700}.title{font-size:46px;font-weight:700}</style>
</defs>
<rect width="1536" height="1024" fill="#fbf7ef"/><rect width="1536" height="1024" fill="url(#paperGrain)"/><g><circle class="fillPaper" cx="355" cy="390" r="36"/><path class="thin" d="M341.5 386.25 h1 M368.5 386.25 h1 M343 406.5 Q355 417 368.5 405"/><path class="ink" d="M355 427.5 v112.5"/><path class="ink" d="M306.25 468.75 C336.25 446.25 373.75 446.25 403.75 468.75"/><path class="ink" d="M355 540 l-52.5 71.25 M355 540 l56.25 71.25"/><rect class="wash" x="510" y="285" width="350" height="310" rx="28"/><path class="thin" d="M510 390 h350 M650 285 v310"/><text x="685" y="645" class="label" text-anchor="middle">旧架构沙发</text><path class="red" d="M885 440 C950 440 1000 440 1060 440"/><path class="ink" d="M1080 245 h190 v520 h-190"/><rect class="fillPaper" x="1130" y="610" width="90" height="70" rx="14"/><text x="1175" y="700" class="caption" text-anchor="middle">新模型</text><path class="thin" d="M330 405 q30 -20 65 0"/><text x="765" y="830" class="caption" text-anchor="middle">换房间不难，难的是承认旧沙发进不了门。</text></g><text x="768" y="940" class="title" text-anchor="middle">第十五章：科学范式转移</text>
</svg>