<?xml version="1.0" encoding="UTF-8"?>
<svg xmlns="http://www.w3.org/2000/svg" width="1536" height="1024" viewBox="0 0 1536 1024" role="img" aria-labelledby="title desc">
<title id="title">第十八章：五个练习</title>
<desc id="desc">理解力也需要热身、负重和复盘。</desc>
<defs>
<filter id="wobble"><feTurbulence type="fractalNoise" baseFrequency="0.012" numOctaves="2" seed="7"/><feDisplacementMap in="SourceGraphic" scale="1.8"/></filter>
<filter id="softShadow"><feDropShadow dx="0" dy="7" stdDeviation="7" flood-color="#6b5a44" flood-opacity="0.15"/></filter>
<pattern id="paperGrain" width="80" height="80" patternUnits="userSpaceOnUse"><circle cx="9" cy="12" r="1.2" fill="#dccdb8" opacity=".25"/><circle cx="57" cy="31" r="1" fill="#dccdb8" opacity=".25"/><circle cx="36" cy="67" r="1.1" fill="#dccdb8" opacity=".22"/></pattern>
<style>.ink{fill:none;stroke:#202124;stroke-width:8;stroke-linecap:round;stroke-linejoin:round;filter:url(#wobble)}.thin{fill:none;stroke:#202124;stroke-width:4;stroke-linecap:round;stroke-linejoin:round;filter:url(#wobble)}.red{fill:none;stroke:#c74335;stroke-width:8;stroke-linecap:round;stroke-linejoin:round;filter:url(#wobble)}.fillPaper{fill:#fbf7ef;stroke:#202124;stroke-width:8;stroke-linecap:round;stroke-linejoin:round;filter:url(#softShadow)}.wash{fill:#eee3d3;stroke:#202124;stroke-width:6;stroke-linecap:round;stroke-linejoin:round;filter:url(#wobble)}.redFill{fill:#c74335;stroke:#202124;stroke-width:6;stroke-linecap:round;stroke-linejoin:round;filter:url(#wobble)}.blueFill{fill:#3e6f8f;stroke:#202124;stroke-width:6;stroke-linecap:round;stroke-linejoin:round;filter:url(#wobble)}.greenFill{fill:#5f7f53;stroke:#202124;stroke-width:6;stroke-linecap:round;stroke-linejoin:round;filter:url(#wobble)}.goldFill{fill:#b88a36;stroke:#202124;stroke-width:6;stroke-linecap:round;stroke-linejoin:round;filter:url(#wobble)}text{font-family:Arial,'Microsoft YaHei',sans-serif;fill:#202124;dominant-baseline:middle}.caption{font-size:30px}.small{font-size:24px}.label{font-size:34px;font-weight:700}.title{font-size:46px;font-weight:700}</style>
</defs>
<rect width="1536" height="1024" fill="#fbf7ef"/><rect width="1536" height="1024" fill="url(#paperGrain)"/><g><circle class="fillPaper" cx="770" cy="430" r="31.200000000000003"/><path class="thin" d="M758.3 426.75 h1 M781.7 426.75 h1 M759.6 444.3 Q770 453.4 781.7 443"/><path class="ink" d="M770 462.5 v97.5"/><path class="ink" d="M727.75 498.25 C753.75 478.75 786.25 478.75 812.25 498.25"/><path class="ink" d="M770 560 l-45.5 61.75 M770 560 l48.75 61.75"/><circle class="wash" cx="360" cy="310" r="65"/><text x="360" y="310" class="label" text-anchor="middle">筛</text><circle class="wash" cx="570" cy="230" r="65"/><text x="570" y="230" class="label" text-anchor="middle">记</text><circle class="wash" cx="770" cy="180" r="65"/><text x="770" y="180" class="label" text-anchor="middle">调</text><circle class="wash" cx="970" cy="230" r="65"/><text x="970" y="230" class="label" text-anchor="middle">迁</text><circle class="wash" cx="1180" cy="310" r="65"/><text x="1180" y="310" class="label" text-anchor="middle">名</text><path class="red" d="M415 315 C505 420 600 430 705 430 M1130 315 C1030 420 940 430 835 430"/><rect class="fillPaper" x="650" y="565" width="240" height="120" rx="28"/><text x="770" y="625" class="label" text-anchor="middle">我的模型</text><path class="thin" d="M705 725 h130"/><text x="770" y="815" class="caption" text-anchor="middle">理解力的健身房，最难的是每天来。</text></g><text x="768" y="940" class="title" text-anchor="middle">第十八章：五个练习</text>
</svg>